<?xml version="1.0" encoding="UTF-8"?>
<svg xmlns="http://www.w3.org/2000/svg" width="400" height="300" viewBox="0 0 400 300"><defs><linearGradient id="bg" x1="0" y1="0" x2="0" y2="1"><stop offset="0%" stop-color="#fbf4e4"/><stop offset="100%" stop-color="#f1e2c5"/></linearGradient></defs><rect width="400" height="300" rx="14" fill="url(#bg)"/><path d="M0,250 L70,180 L130,235 L200,160 L270,235 L340,185 L400,250 Z" fill="#cdbf9a" opacity="0.55"/><path d="M0,250 L90,205 L160,245 L250,195 L330,248 L400,215 L400,250 Z" fill="#a8946b" opacity="0.5"/><path d="M0,262 q40,-14 80,0 t80,0 t80,0 t80,0 t80,0" fill="none" stroke="#2e5984" stroke-width="2.5" opacity="0.55"/><path d="M0,275 q40,-12 80,0 t80,0 t80,0 t80,0 t80,0" fill="none" stroke="#2e5984" stroke-width="2" opacity="0.4"/><g opacity="0.92" fill="#ffffff"><ellipse cx="120" cy="70" rx="34.0" ry="16.0"/><ellipse cx="94.0" cy="76.0" rx="22.0" ry="12.0"/><ellipse cx="146.0" cy="76.0" rx="24.0" ry="13.0"/></g><g opacity="0.92" fill="#ffffff"><ellipse cx="250" cy="96" rx="27.200000000000003" ry="12.8"/><ellipse cx="229.2" cy="100.8" rx="17.6" ry="9.600000000000001"/><ellipse cx="270.8" cy="100.8" rx="19.200000000000003" ry="10.4"/></g><path d="M180,118 q20,-26 40,0" fill="none" stroke="#7a5a32" stroke-width="5" stroke-linecap="round"/><path d="M160,120 q4,40 -2,80" fill="none" stroke="#5b8c5a" stroke-width="2.5" stroke-linecap="round" opacity="0.85"/><path d="M156,130 q-10,30 -6,60" fill="none" stroke="#5b8c5a" stroke-width="1.6" opacity="0.7"/><path d="M190,120 q4,40 -2,80" fill="none" stroke="#5b8c5a" stroke-width="2.5" stroke-linecap="round" opacity="0.85"/><path d="M186,130 q-10,30 -6,60" fill="none" stroke="#5b8c5a" stroke-width="1.6" opacity="0.7"/><path d="M220,120 q4,40 -2,80" fill="none" stroke="#5b8c5a" stroke-width="2.5" stroke-linecap="round" opacity="0.85"/><path d="M216,130 q-10,30 -6,60" fill="none" stroke="#5b8c5a" stroke-width="1.6" opacity="0.7"/><path d="M250,120 q4,40 -2,80" fill="none" stroke="#5b8c5a" stroke-width="2.5" stroke-linecap="round" opacity="0.85"/><path d="M246,130 q-10,30 -6,60" fill="none" stroke="#5b8c5a" stroke-width="1.6" opacity="0.7"/><rect x="306" y="190" width="8" height="40" fill="#7a5a32"/><circle cx="310" cy="174" r="26" fill="#5b8c5a" opacity="0.85"/><circle cx="294" cy="186" r="16" fill="#5b8c5a" opacity="0.7"/><circle cx="326" cy="186" r="16" fill="#5b8c5a" opacity="0.7"/><rect x="6" y="6" width="388" height="288" rx="10" fill="none" stroke="#b8860b" stroke-width="2" opacity="0.7"/><rect x="11" y="11" width="378" height="278" rx="7" fill="none" stroke="#2c1810" stroke-width="0.8" opacity="0.35"/><rect x="354" y="16" width="30" height="30" rx="3" fill="#c43a31" opacity="0.9"/><text x="369" y="37" font-size="17" fill="#fff" text-anchor="middle" font-family="serif">拂</text><rect x="0" y="262" width="400" height="38" fill="#2c1810" opacity="0.82"/><text x="200.0" y="287" font-size="19" fill="#f5e6d3" text-anchor="middle" font-family="'Noto Serif SC', serif" letter-spacing="2">拂堤杨柳醉春烟</text></svg>
