<?xml version="1.0" encoding="UTF-8"?>
<svg xmlns="http://www.w3.org/2000/svg" width="400" height="300" viewBox="0 0 400 300"><defs><linearGradient id="bg" x1="0" y1="0" x2="0" y2="1"><stop offset="0%" stop-color="#fbf4e4"/><stop offset="100%" stop-color="#f1e2c5"/></linearGradient></defs><rect width="400" height="300" rx="14" fill="url(#bg)"/><path d="M0,250 L70,180 L130,235 L200,160 L270,235 L340,185 L400,250 Z" fill="#cdbf9a" opacity="0.55"/><path d="M0,250 L90,205 L160,245 L250,195 L330,248 L400,215 L400,250 Z" fill="#a8946b" opacity="0.5"/><path d="M0,262 q40,-14 80,0 t80,0 t80,0 t80,0 t80,0" fill="none" stroke="#2e5984" stroke-width="2.5" opacity="0.55"/><path d="M0,275 q40,-12 80,0 t80,0 t80,0 t80,0 t80,0" fill="none" stroke="#2e5984" stroke-width="2" opacity="0.4"/><circle cx="138.0" cy="150.0" r="9" fill="#c43a31" opacity="0.9"/><circle cx="125.56294035029124" cy="167.11881113451227" r="9" fill="#c43a31" opacity="0.9"/><circle cx="105.43847837121093" cy="160.5812139121326" r="9" fill="#c43a31" opacity="0.9"/><circle cx="105.43651784632773" cy="139.42148462402832" r="9" fill="#c43a31" opacity="0.9"/><circle cx="125.55976801618797" cy="132.88015830662638" r="9" fill="#c43a31" opacity="0.9"/><circle cx="120" cy="150" r="7" fill="#f6d36b"/><circle cx="298.0" cy="160.0" r="9" fill="#c43a31" opacity="0.9"/><circle cx="285.5629403502912" cy="177.11881113451227" r="9" fill="#c43a31" opacity="0.9"/><circle cx="265.4384783712109" cy="170.5812139121326" r="9" fill="#c43a31" opacity="0.9"/><circle cx="265.4365178463277" cy="149.42148462402832" r="9" fill="#c43a31" opacity="0.9"/><circle cx="285.55976801618795" cy="142.88015830662638" r="9" fill="#c43a31" opacity="0.9"/><circle cx="280" cy="160" r="7" fill="#f6d36b"/><rect x="6" y="6" width="388" height="288" rx="10" fill="none" stroke="#b8860b" stroke-width="2" opacity="0.7"/><rect x="11" y="11" width="378" height="278" rx="7" fill="none" stroke="#2c1810" stroke-width="0.8" opacity="0.35"/><rect x="354" y="16" width="30" height="30" rx="3" fill="#c43a31" opacity="0.9"/><text x="369" y="37" font-size="17" fill="#fff" text-anchor="middle" font-family="serif">小</text><rect x="0" y="262" width="400" height="38" fill="#2c1810" opacity="0.82"/><text x="200.0" y="287" font-size="19" fill="#f5e6d3" text-anchor="middle" font-family="'Noto Serif SC', serif" letter-spacing="2">小荷才露尖尖角</text></svg>
